<svg id="Capa_1" data-name="Capa 1" xmlns="http://www.w3.org/2000/svg" viewBox="0 0 500 500"><defs><style>.cls-1{fill:#eae0d6;}</style></defs><path class="cls-1" d="M193.36,130.3a114.37,114.37,0,0,0-5.81,23.19c-1.21,10-1.48,13.63-.15,15.91,1.14,1.7,7.06.72,8.88-1.41a157.2,157.2,0,0,1,13.21-13,56.32,56.32,0,0,1,14.58-9.56c3.64-1.52,8.11-1.61,10.25-.42,2.27,1.9.94,6.59-1.26,9.75-2,2.85-3.67,3.78-4.27,5.58-.27.82.56,2.75,2.15,3.76a5.32,5.32,0,0,0,5.65.17c1.37-.75,2.6-2.24,4.14-3.89,3.37-3.61,7.63-7.52,12.64-7.06s10.66,4.78,14.31,13.44,6,13.74,4.21,16.62c-2.29,3.63-6.07,4-9.41,5.24s-5.2,2-5.09,4.86c.13,3.26,1.6,5.2,4.18,5.65s10.4-1.1,13.05,1.26,4.07,10.55,3.46,21c-.31,5.33-2.07,11.09-5.28,17.84-3.1,6.53-7.44,10.4-12.14,13.82s-12.2,5.75-17.92,5.31A28.47,28.47,0,0,1,224.07,249c-8.32-9-13.55-22.55-10-35.07S223.61,199,230,200s9,6.3,9.56,11-.45,9.11-3.3,11.05-5.75,1.82-5.86,3,2.79,4.32,8.59,2.61,13.1-9.56,10.82-21.86S238.45,186,227.56,185.83s-22.74,9.83-25.93,20.76-3.64,28.87,3.19,43,17.43,29.57,43,30.46c10.87.38,19.35-1.82,26.51-6.61,8-5.36,14.58-12.14,22-22.31,11.46-15.68,19.66-44.11,20.26-62,.59-17.3-.22-43.27-10.7-61,4.19.51,8.86,4.44,9.57,4.25.89-.78-3.37-7.47-9.65-14.27a87.64,87.64,0,0,0-7.89-7.59c-3.48-3-7.22-4.81-9.63-6.62-.07,0,0-.17,0-.17,6.38-.54,12.71,2.19,13.16,1.93,1-.6-4.27-6.78-15.77-11.07-10.71-4-17.48-4.19-19.19-4.72-.76-.24,1.19-1.39,3.64-2.24s6.57-1.55,6.42-1.79c-1.15-1.71-14.4-3.89-31.43,1.29-7.86,2.4-15,4.84-21.79,9.11A72.59,72.59,0,0,0,211.17,106c-1.62,1.51.69-6.06-3.79-9.1s-9.24-2-11.54,5.47c-1.91,6.23,2.91,15.29,3.71,16.13,0,0-.73,1.05-1.33,2.14-2.32-4.82-6-7.51-12-6.58-6.54,1-9.3,5.12-6,10.82A11.48,11.48,0,0,0,193.36,130.3Zm3.45,9.57c1.26-2.4,4.79-2.74,5.81-1.83a2.78,2.78,0,0,1,.46,3.53c-.69,1.09-3.07,4.49-4.5,4.62a2.25,2.25,0,0,1-2.16-1.26C195.83,144,195.58,142.22,196.81,139.87Z"/><rect class="cls-1" x="245.24" y="318.14" width="9.51" height="71.36" rx="1.78"/><rect class="cls-1" x="226.21" y="408.52" width="47.57" height="9.51" rx="1.78"/><path class="cls-1" d="M424.83,387l-30.5-67.79a1.78,1.78,0,0,0-3.23,0L360.6,387a1.78,1.78,0,0,0,1.62,2.53h5.59a1.79,1.79,0,0,0,1.61-1l21.69-45.33a1.78,1.78,0,0,1,3.21,0L416,388.49a1.79,1.79,0,0,0,1.61,1h5.59A1.78,1.78,0,0,0,424.83,387Z"/><path class="cls-1" d="M108.9,319.17a1.78,1.78,0,0,0-3.23,0L75.17,387a1.78,1.78,0,0,0,1.62,2.53h5.59a1.79,1.79,0,0,0,1.61-1l21.69-45.33a1.78,1.78,0,0,1,3.21,0l21.69,45.33a1.79,1.79,0,0,0,1.61,1h5.59A1.78,1.78,0,0,0,139.4,387Z"/><path class="cls-1" d="M226.21,319.92a1.78,1.78,0,0,0-1.78-1.78h-6a1.78,1.78,0,0,0-1.78,1.78v47a1.79,1.79,0,0,1-2.89,1.4L153,318.52a1.79,1.79,0,0,0-2.89,1.4v67.79a1.78,1.78,0,0,0,1.78,1.78h6a1.77,1.77,0,0,0,1.78-1.78V342.43a1.78,1.78,0,0,1,2.87-1.42l60.87,48.12a1.78,1.78,0,0,0,2.86-1.42Z"/><path class="cls-1" d="M346.9,318.62l-33.84,33.46a1.79,1.79,0,0,1-2.44,0l-33.83-33.46a1.78,1.78,0,0,0-3,1.3v67.79a1.77,1.77,0,0,0,1.78,1.78h5.95a1.78,1.78,0,0,0,1.78-1.78V343.8a1.78,1.78,0,0,1,3-1.32l24.35,22.37a1.77,1.77,0,0,0,2.41,0l24.35-22.37a1.78,1.78,0,0,1,3,1.32v43.91a1.77,1.77,0,0,0,1.78,1.78h5.95a1.78,1.78,0,0,0,1.78-1.78V319.92A1.78,1.78,0,0,0,346.9,318.62Z"/></svg>