<svg id="Capa_1" data-name="Capa 1" xmlns="http://www.w3.org/2000/svg" viewBox="0 0 200 200"><defs><style>.cls-1{fill:#eae0d6;}</style></defs><path class="cls-1" d="M101.87,195H100c-14.89,0-28.65-.34-42-1.16a56.1,56.1,0,0,1-32.39-12.26c-8.6-7-14.48-16.51-17.47-28.2-2.6-10.19-2.73-20.18-2.87-29.85C5.12,116.6,5,108.38,5,100s.12-16.62.21-23.55c.14-9.67.27-19.66,2.87-29.85,3-11.69,8.87-21.18,17.47-28.2A56.11,56.11,0,0,1,58,6.16C71.33,5.34,85.09,5,100,5s28.65.34,42,1.16a56.1,56.1,0,0,1,32.39,12.26c8.61,7,14.48,16.51,17.47,28.2,2.6,10.18,2.73,20.18,2.87,29.85.09,6.93.19,15.15.21,23.51v0c0,8.36-.12,16.58-.21,23.51-.14,9.67-.27,19.66-2.87,29.85-3,11.69-8.86,21.18-17.47,28.2a56.1,56.1,0,0,1-32.39,12.26C129.24,194.62,116.07,195,101.87,195ZM100,180.16c14.65,0,28.11-.34,41.17-1.13a41,41,0,0,0,23.92-8.95c6.09-5,10.28-11.82,12.46-20.37s2.29-17.58,2.41-26.38c.1-6.89.2-15,.22-23.33s-.12-16.44-.22-23.33c-.12-8.8-.24-17.9-2.41-26.38s-6.37-15.4-12.46-20.37a41,41,0,0,0-23.92-9c-13.06-.79-26.52-1.16-41.13-1.13S71.91,20.18,58.85,21a41,41,0,0,0-23.92,9c-6.09,5-10.28,11.82-12.46,20.37s-2.29,17.58-2.41,26.38c-.1,6.9-.2,15.06-.22,23.35s.12,16.41.22,23.31c.12,8.8.24,17.9,2.41,26.38s6.37,15.4,12.46,20.37A41,41,0,0,0,58.85,179C71.91,179.82,85.37,180.19,100,180.16Zm-.35-33.77A46.39,46.39,0,1,1,146,100,46.44,46.44,0,0,1,99.63,146.39Zm0-77.93A31.54,31.54,0,1,0,131.17,100,31.59,31.59,0,0,0,99.63,68.46Zm51.58-29.69A11.13,11.13,0,1,0,162.35,49.9,11.13,11.13,0,0,0,151.21,38.77Z"/></svg>