<svg id="Capa_1" data-name="Capa 1" xmlns="http://www.w3.org/2000/svg" viewBox="0 0 200 200"><defs><style>.cls-1{fill:#eae0d6;}</style></defs><path class="cls-1" d="M195,97.56c0,51.11-41.76,92.55-93.28,92.55A93.6,93.6,0,0,1,56.64,178.6L5,195l16.83-49.67A91.68,91.68,0,0,1,8.46,97.55C8.46,46.44,50.21,5,101.73,5S195,46.44,195,97.56Zm-93.29-77.8c-43.24,0-78.41,34.9-78.41,77.81a77,77,0,0,0,14.94,45.62l-9.79,28.89,30.12-9.58a78.4,78.4,0,0,0,43.14,12.87c43.24,0,78.43-34.9,78.43-77.81S145,19.76,101.71,19.76Zm47.11,99.11c-.58-.93-2.1-1.5-4.38-2.64s-13.53-6.62-15.62-7.37-3.63-1.14-5.16,1.13-5.89,7.38-7.23,8.9-2.67,1.71-5,.59-9.66-3.53-18.4-11.26A68.34,68.34,0,0,1,80.37,92.51c-1.35-2.26-.14-3.49,1-4.62s2.28-2.65,3.43-4a15.27,15.27,0,0,0,2.29-3.78,4.23,4.23,0,0,0-.2-4c-.57-1.14-5.13-12.29-7-16.83S76,55.53,74.7,55.53s-2.86-.18-4.38-.18a8.38,8.38,0,0,0-6.09,2.82c-2.09,2.27-8,7.76-8,18.92s8.19,22,9.33,23.46,15.83,25.17,39.07,34.25,23.25,6,27.44,5.67,13.53-5.49,15.42-10.78S149.4,119.82,148.82,118.87Z"/></svg>